<?xml version="1.0" encoding="UTF-8"?>
<!DOCTYPE svg PUBLIC "-//W3C//DTD SVG 1.1//EN" "http://www.w3.org/Graphics/SVG/1.1/DTD/svg11.dtd">
<!-- Creator: CorelDRAW 2017 -->
<svg xmlns="http://www.w3.org/2000/svg" xml:space="preserve" width="150px" height="150px" version="1.1" style="shape-rendering:geometricPrecision; text-rendering:geometricPrecision; image-rendering:optimizeQuality; fill-rule:evenodd; clip-rule:evenodd"
viewBox="0 0 150 150"
 xmlns:xlink="http://www.w3.org/1999/xlink">
 <defs>
  <style type="text/css">
   <![CDATA[
    .fil3 {fill:#E2DFF4}
    .fil2 {fill:white}
    .fil4 {fill:white;fill-opacity:0.188235}
    .fil0 {fill:url(#id0)}
    .fil1 {fill:url(#id1)}
   ]]>
  </style>
  <linearGradient id="id0" gradientUnits="userSpaceOnUse" x1="75" y1="75" x2="75" y2="-0.001">
   <stop offset="0" style="stop-opacity:1; stop-color:#FC5204"/>
   <stop offset="1" style="stop-opacity:1; stop-color:#FC3B05"/>
  </linearGradient>
  <linearGradient id="id1" gradientUnits="userSpaceOnUse" xlink:href="#id0" x1="75" y1="150.001" x2="75.001" y2="75">
  </linearGradient>
 </defs>
 <g id="Camada_x0020_1">
  <metadata id="CorelCorpID_0Corel-Layer"/>
  <circle class="fil0" cx="75" cy="75" r="75.001"/>
  <path class="fil1" d="M150.001 75c0,41.422 -33.579,75.001 -75.001,75.001 -41.422,0 -75.001,-33.579 -75.001,-75.001l150.002 0z"/>
  <path class="fil2" d="M51.735 68.796c8.011,0.002 11.139,-0.105 11.094,5.317l-0.022 25.258c0.039,6.603 0.139,7.184 -11.076,7.184l0.248 4.362 45.827 -0.01 0.283 -4.352c-8.923,0 -11.233,-0.003 -11.153,-5.822 0.111,-8.004 0.687,-31.185 -0.17,-36.397l-35.028 -0.106 -0.003 4.566z"/>
  <path class="fil2" d="M70.316 28.625c-18.533,6.418 -10.062,34.549 9.257,28.571 18.776,-5.81 9.419,-35.037 -9.257,-28.571z"/>
  <path class="fil3" d="M62.829 75l-0.021 24.371c0.038,6.603 0.138,7.183 -11.076,7.183l0.247 4.363 45.827 -0.01 0.283 -4.353c-8.923,0 -11.233,-0.002 -11.153,-5.821 0.007,-0.514 0.016,-1.09 0.027,-1.72 0.076,-4.637 0.229,-12.185 0.259,-19.152 0.007,-1.67 0.007,-3.306 -0.002,-4.861l-24.391 0z"/>
  <path class="fil4" d="M104.885 116.904c-22.795,7.752 -34.06,-17.701 -10.913,-39.502 13.403,-12.625 25.851,-53.031 -16.553,-61.94 56.166,-2.813 79.974,83.587 27.466,101.442z"/>
 </g>
</svg>
