<?xml version="1.0" encoding="UTF-8"?>
<!DOCTYPE svg PUBLIC "-//W3C//DTD SVG 1.1//EN" "http://www.w3.org/Graphics/SVG/1.1/DTD/svg11.dtd">
<!-- Creator: CorelDRAW 2017 -->
<svg xmlns="http://www.w3.org/2000/svg" xml:space="preserve" width="150px" height="150px" version="1.1" style="shape-rendering:geometricPrecision; text-rendering:geometricPrecision; image-rendering:optimizeQuality; fill-rule:evenodd; clip-rule:evenodd"
viewBox="0 0 150 150"
 xmlns:xlink="http://www.w3.org/1999/xlink">
 <defs>
  <style type="text/css">
   <![CDATA[
    .fil3 {fill:#E2DFF4}
    .fil2 {fill:white}
    .fil4 {fill:white;fill-opacity:0.188235}
    .fil0 {fill:url(#id0)}
    .fil1 {fill:url(#id1)}
   ]]>
  </style>
  <linearGradient id="id0" gradientUnits="userSpaceOnUse" x1="75" y1="75" x2="75" y2="-0.001">
   <stop offset="0" style="stop-opacity:1; stop-color:#FC5204"/>
   <stop offset="1" style="stop-opacity:1; stop-color:#FC3B05"/>
  </linearGradient>
  <linearGradient id="id1" gradientUnits="userSpaceOnUse" xlink:href="#id0" x1="75" y1="150.001" x2="75.001" y2="75">
  </linearGradient>
 </defs>
 <g id="Camada_x0020_1">
  <metadata id="CorelCorpID_0Corel-Layer"/>
  <circle class="fil0" cx="75" cy="75" r="75.001"/>
  <path class="fil1" d="M150.001 75c0,41.422 -33.579,75.001 -75.001,75.001 -41.422,0 -75.001,-33.579 -75.001,-75.001l150.002 0z"/>
  <path class="fil2" d="M67.984 14.674c-20.843,7.218 -11.317,38.857 10.413,32.134 21.117,-6.534 10.594,-39.408 -10.413,-32.134zm-18.539 49.725c8.833,0.002 12.282,-0.179 12.234,9.085l-0.025 43.159c0.043,11.28 0.153,12.273 -12.213,12.273l0.274 7.454 50.531 -0.017 0.313 -7.437c-9.839,0 -12.387,-0.005 -12.299,-9.945 0.122,-13.679 0.757,-53.288 -0.187,-62.192l-38.625 -0.182 -0.003 7.802z"/>
  <path class="fil3" d="M61.678 75l-0.024 41.642c0.043,11.281 0.153,12.274 -12.213,12.274l0.274 7.455 50.531 -0.018 0.313 -7.437c-9.84,0 -12.387,-0.005 -12.298,-9.946 0.008,-0.878 0.017,-1.863 0.029,-2.94 0.084,-7.923 0.253,-20.821 0.286,-32.724 0.008,-2.853 0.008,-5.649 -0.003,-8.306l-26.895 0z"/>
  <path class="fil4" d="M104.885 116.904c-22.795,7.752 -34.06,-17.701 -10.913,-39.502 13.403,-12.625 25.851,-53.031 -16.553,-61.94 56.166,-2.813 79.974,83.587 27.466,101.442z"/>
 </g>
</svg>
