<?xml version="1.0" encoding="UTF-8"?>
<!DOCTYPE svg PUBLIC "-//W3C//DTD SVG 1.1//EN" "http://www.w3.org/Graphics/SVG/1.1/DTD/svg11.dtd">
<!-- Creator: CorelDRAW 2017 -->
<svg xmlns="http://www.w3.org/2000/svg" xml:space="preserve" width="150px" height="150px" version="1.1" style="shape-rendering:geometricPrecision; text-rendering:geometricPrecision; image-rendering:optimizeQuality; fill-rule:evenodd; clip-rule:evenodd"
viewBox="0 0 150 150"
 xmlns:xlink="http://www.w3.org/1999/xlink">
 <defs>
  <style type="text/css">
   <![CDATA[
    .fil0 {fill:none}
    .fil1 {fill:white}
   ]]>
  </style>
 </defs>
 <g id="Camada_x0020_1">
  <metadata id="CorelCorpID_0Corel-Layer"/>
  <polygon class="fil0" points="1.227,1.227 148.774,1.227 148.774,148.774 1.227,148.774 "/>
  <path class="fil1" d="M65.384 5.715c0,3.147 0.225,2.823 0.962,3.726 1.037,1.273 3.303,3.784 4.228,5.149 2.063,3.046 1.69,2.289 1.69,6.279 -3.384,0 -6.729,0.334 -9.902,1.197 -1.697,0.462 -1.225,0.141 -3.72,0.97 -2.467,0.818 -4.181,1.547 -6.338,2.885 -1.424,0.882 -1.204,0.556 -2.819,1.87 -3.459,2.812 -6.335,7.448 -6.464,12.131 -0.243,8.847 0.42,19.13 -0.299,27.822 -0.122,1.476 0.055,3.076 -0.122,4.409l-0.383 4.304c-0.235,2.142 -1.48,9.721 -2.104,11.801 -0.39,1.3 -0.775,2.317 -1.174,3.514 -0.181,0.544 -0.321,1.198 -0.553,1.791 -0.638,1.635 -1.847,3.968 -2.832,5.294l-1.415 2.023c-1.152,1.419 -2.206,2.246 -3.504,3.528 -1.419,1.401 -4.184,4.736 -5.308,6.414l-1.78 2.908c-0.471,1.052 -0.936,2.292 -1.003,3.449l0 1.044c0.035,1.213 0.156,2.315 0.156,3.722l0 5.781 104.6 0 0 -5.781c0,-1.567 0.105,-2.593 0.156,-3.449l0 -1.388c-0.077,-0.884 -0.342,-1.825 -1.028,-3.353 -0.279,-0.622 -0.521,-1.003 -0.849,-1.496 -1.881,-2.837 -3.874,-5.533 -6.292,-7.928 -0.412,-0.408 -0.749,-0.796 -1.175,-1.17 -1.454,-1.28 -2.199,-2.087 -3.289,-3.743 -1.209,-1.839 -0.489,-0.278 -1.856,-2.989l-3.181 -8.539c-0.796,-3.033 -1.655,-8.981 -2.076,-12.297 -0.149,-1.173 -0.355,-2.975 -0.425,-4.263 -0.039,-0.731 0,-1.601 0.002,-2.345l-0.318 -6.869c-0.143,-4.778 0.314,-20.754 -0.151,-23.439 -0.648,-3.75 -2.059,-6.821 -4.73,-9.49 -0.794,-0.793 -1.596,-1.487 -2.529,-2.16 -0.534,-0.386 -0.849,-0.58 -1.444,-0.9 -0.587,-0.316 -0.896,-0.597 -1.458,-0.887 -1.66,-0.856 -5.056,-2.275 -6.816,-2.719 -3.578,-0.901 -8.985,-1.809 -12.574,-1.809 0,-2.524 -0.308,-3.496 1.367,-5.352l2.892 -3.516c3.767,-4.062 3.09,-1.916 3.09,-7.848l-19.232 0 0 1.719zm-2.345 127.322c0,1.599 0.625,3.63 1.147,4.791 1.221,2.714 2.875,5.14 5.482,6.707 1.382,0.83 2.925,1.32 4.489,1.469l2.049 0c0.74,-0.071 1.472,-0.219 2.179,-0.445 0.687,-0.22 1.461,-0.694 2.061,-1.066 1.777,-1.101 4.256,-3.738 5.087,-5.852 0.798,-2.032 1.584,-3.651 1.584,-6.385l-24.078 0 0 0.781z"/>
 </g>
</svg>
