<?xml version="1.0" encoding="UTF-8"?>
<!DOCTYPE svg PUBLIC "-//W3C//DTD SVG 1.1//EN" "http://www.w3.org/Graphics/SVG/1.1/DTD/svg11.dtd">
<!-- Creator: CorelDRAW 2017 -->
<svg xmlns="http://www.w3.org/2000/svg" xml:space="preserve" width="150px" height="150px" version="1.1" style="shape-rendering:geometricPrecision; text-rendering:geometricPrecision; image-rendering:optimizeQuality; fill-rule:evenodd; clip-rule:evenodd"
viewBox="0 0 150 150"
 xmlns:xlink="http://www.w3.org/1999/xlink">
 <defs>
  <style type="text/css">
   <![CDATA[
    .fil0 {fill:none}
    .fil1 {fill:white}
   ]]>
  </style>
 </defs>
 <g id="Camada_x0020_1">
  <metadata id="CorelCorpID_0Corel-Layer"/>
  <polygon class="fil0" points="1.227,1.227 148.774,1.227 148.774,148.774 1.227,148.774 "/>
  <path class="fil1" d="M85.78 92.013c0.479,0.303 2.9,2.627 3.219,3.094 1.016,1.496 -0.284,4.337 0.436,6.088 0.145,0.35 5.551,5.664 6.307,6.426 4.263,4.297 8.188,8.164 12.885,12.864 8.359,8.364 17.686,17.444 25.592,25.633 0.824,-0.357 11.69,-11.087 12.079,-12.093 -2.085,-1.951 -4.339,-4.35 -6.363,-6.354l-38.508 -38.294c-1.274,-0.586 -4.843,0.245 -6.242,-0.263 -0.518,-0.189 -2.701,-2.577 -3.323,-3.1 1.215,-2.89 13.297,-14.179 11.58,-36.269 -1.359,-17.489 -10.58,-30.189 -22.491,-38.035 -8.143,-5.363 -18.029,-8.143 -28.324,-7.966 -15.449,0.265 -26.551,6.982 -34.217,14.366 -13.656,13.156 -18.725,34.396 -11.145,54.146 4.06,10.577 12.832,20.417 22.992,25.484 17.003,8.482 36.413,7.593 51.852,-3.088 1.228,-0.849 2.443,-1.964 3.671,-2.639zm-35.106 -73.931c-19.182,1.706 -33.979,17.33 -32.57,38.47 1.241,18.609 17.948,34.556 38.699,32.532 19.088,-1.863 33.877,-17.32 32.39,-38.578 -1.305,-18.67 -17.969,-34.251 -38.519,-32.424z"/>
 </g>
</svg>
